<?xml version="1.0" encoding="utf-8"?>
<!-- Generator: Adobe Illustrator 22.1.0, SVG Export Plug-In . SVG Version: 6.00 Build 0)  -->
<svg version="1.1" id="Calque_1" xmlns="http://www.w3.org/2000/svg" xmlns:xlink="http://www.w3.org/1999/xlink" x="0px" y="0px"
	 viewBox="0 0 483.6 459.9" style="enable-background:new 0 0 483.6 459.9;" xml:space="preserve">
<style type="text/css">
	.st0{fill:#FFE1E6;}
</style>
<g>
	<path class="st0" d="M241.8,0c12.4,24.1,25.5,48.1,39.2,72.7s27.8,49.9,41.8,75.6l-5.3-3.8l166,31.2l0,0l-116,122.8l2-6.2
		l21.6,167.6l0,0l-152.7-72.4h6.5L92.2,459.9l0,0l21.6-167.6l2,6.2L0,175.6l0,0l166-31.2l-5.3,3.8c13.9-25.7,28.1-51,41.8-75.6
		C216.3,48.1,229.4,24,241.8,0z M241.8,0c-12.5,26.4-24.3,52.8-35.5,78.7s-22,51-32.9,75.8l-1.6,3.4l-3.7,0.4L0,175.6l0,0
		l125.8,112.8l2.8,2.5l-0.8,3.7L92.4,459.8l0,0l146.2-84.7l3.3-1.9l3.3,1.9l146.2,84.7l0,0l-35.6-165.2l-0.8-3.7l2.8-2.5
		l125.8-112.8l0,0l-168.1-17.3l-3.7-0.4l-1.5-3.4c-11-24.8-21.7-50-32.9-75.8C266.1,52.8,254.3,26.4,241.8,0z"/>
</g>
</svg>
